<svg width="172" height="40" viewBox="0 0 172 40" fill="none" xmlns="http://www.w3.org/2000/svg">
<path d="M23.3606 12.8281C21.8137 13.2873 20.6476 14.3261 19.7936 15.4544C19.6102 15.6966 19.228 15.5146 19.3008 15.2178C20.936 8.49401 18.7759 2.90556 12.0422 0.154735C11.7006 0.0147435 11.345 0.321324 11.4346 0.679702C14.4977 12.9779 1.61412 11.9406 3.24224 25.8823C3.27024 26.1217 3.00145 26.2855 2.80546 26.1455C2.19509 25.7073 1.51332 24.7932 1.04575 24.1506C0.908555 23.9616 0.611769 24.0148 0.548773 24.2402C0.176391 25.5869 0 26.8553 0 28.1152C0 33.0149 2.51847 37.328 6.33048 39.8283C6.54887 39.9711 6.82886 39.7667 6.75466 39.5161C6.55867 38.8581 6.44808 38.1638 6.43968 37.4456C6.43968 37.0046 6.46768 36.5539 6.53627 36.1339C6.69587 35.0784 7.06265 34.0732 7.67862 33.1577C9.79111 29.9869 14.0259 26.9239 13.3497 22.7647C13.3063 22.5015 13.6171 22.328 13.8131 22.5085C16.7964 25.2342 17.3871 28.9005 16.8972 32.1889C16.8552 32.4745 17.2135 32.6271 17.3941 32.4031C17.8505 31.832 18.4077 31.3308 19.0138 30.9542C19.165 30.8604 19.3666 30.9318 19.424 31.0998C19.7614 32.0811 20.2626 33.0023 20.7358 33.9234C21.3013 35.0308 21.6023 36.2949 21.5547 37.6332C21.5309 38.2842 21.4231 38.9141 21.2425 39.5133C21.1655 39.7667 21.4427 39.9781 21.6653 39.8325C25.4801 37.3322 28 33.0191 28 28.1166C28 26.4129 27.7018 24.7428 27.1376 23.1777C25.9547 19.8949 22.9533 17.4297 23.712 13.1515C23.7484 12.9471 23.5594 12.7693 23.3606 12.8281Z" fill="#666666"/>
<path d="M41 34.0522V10.9619H55.7586V14.3265H44.7969V21.0227H53.8436V24.2883H44.7969V34.0522H41Z" fill="#666666"/>
<path d="M59.9565 14.7882C58.7348 14.7882 57.7773 13.8976 57.7773 12.6441C57.7773 11.3906 58.7348 10.5 59.9565 10.5C61.1781 10.5 62.1356 11.3906 62.1356 12.6441C62.1356 13.8976 61.1781 14.7882 59.9565 14.7882ZM58.1405 34.0521V17.1632H61.7064V34.0521H58.1405Z" fill="#666666"/>
<path d="M73.5866 17.1631H74.379V20.4947H72.7941C69.6245 20.4947 68.601 22.9686 68.601 25.5746V34.052H65.0352V17.1631H68.2048L68.601 19.703C69.4594 18.2846 70.8131 17.1631 73.5866 17.1631Z" fill="#666666"/>
<path d="M83.6309 34.25C78.3152 34.25 74.9805 30.8194 74.9805 25.6406C74.9805 20.4288 78.3152 16.9653 83.3008 16.9653C88.1873 16.9653 91.4559 20.066 91.555 25.0139C91.555 25.4427 91.522 25.9045 91.4559 26.3663H78.7114V26.5972C78.8105 29.467 80.6264 31.3472 83.4328 31.3472C85.6119 31.3472 87.1968 30.2587 87.692 28.3785H91.2578C90.6635 31.7101 87.8241 34.25 83.6309 34.25ZM78.8435 23.7604H87.8571C87.5599 21.2535 85.8101 19.8351 83.3338 19.8351C81.0556 19.8351 79.1076 21.3524 78.8435 23.7604Z" fill="#666666"/>
<path d="M102.035 34.25C96.917 34.25 93.6484 30.9184 93.6484 25.6406C93.6484 20.4288 97.0161 16.9653 102.134 16.9653C106.492 16.9653 109.199 19.3733 109.893 23.1997H106.162C105.7 21.2205 104.28 20 102.068 20C99.1952 20 97.3132 22.309 97.3132 25.6406C97.3132 28.9392 99.1952 31.2153 102.068 31.2153C104.247 31.2153 105.7 29.9618 106.129 28.0156H109.893C109.232 31.842 106.36 34.25 102.035 34.25Z" fill="#666666"/>
<path d="M121.004 17.1631H121.797V20.4947H120.212C117.042 20.4947 116.019 22.9686 116.019 25.5746V34.052H112.453V17.1631H115.623L116.019 19.703C116.877 18.2846 118.231 17.1631 121.004 17.1631Z" fill="#666666"/>
<path d="M130.613 16.9653C135.103 16.9653 137.678 19.1094 137.678 23.1007V34.0521H134.575L134.278 31.6441C133.122 33.1615 131.504 34.25 128.83 34.25C125.132 34.25 122.656 32.4358 122.656 29.3021C122.656 25.8385 125.165 23.8924 129.919 23.8924H134.146V22.8698C134.146 20.9896 132.792 19.8351 130.448 19.8351C128.335 19.8351 126.915 20.8247 126.651 22.309H123.151C123.514 19.0104 126.354 16.9653 130.613 16.9653ZM129.424 31.4792C132.396 31.4792 134.113 29.7309 134.146 27.125V26.5312H129.721C127.509 26.5312 126.288 27.3559 126.288 29.0712C126.288 30.4896 127.476 31.4792 129.424 31.4792Z" fill="#666666"/>
<path d="M144.655 34.052L139.141 17.1631H142.905L146.768 30.0936L150.631 17.1631H153.899L157.597 30.0936L161.592 17.1631H165.224L159.611 34.052H155.781L152.216 22.5728L148.518 34.052H144.655Z" fill="#666666"/>
<path d="M166.934 34.0522V10.9619H170.5V34.0522H166.934Z" fill="#666666"/>
</svg>
